<svg xmlns="http://www.w3.org/2000/svg" xmlns:xlink="http://www.w3.org/1999/xlink" version="1.1" x="0px" y="0px" viewBox="0 0 100 125" enable-background="new 0 0 100 100" xml:space="preserve"><path fill-rule="evenodd" clip-rule="evenodd" d="M86.687,33.806c-1.013,4.069-1.944,7.821-2.882,11.572  c-1.275,5.103-2.562,10.204-3.823,15.311c-0.186,0.748-0.307,1.517-0.392,2.284c-0.551,5.017-4.451,8.608-9.525,8.632  c-8.591,0.036-17.183,0.034-25.773,0c-5.231-0.021-9.063-3.76-9.603-8.921c-0.385-3.685-1.105-7.333-1.711-10.993  c-0.949-5.737-1.926-11.47-2.891-17.205c-0.046-0.272-0.051-0.56-0.138-0.818c-1.54-4.619-3.089-9.235-4.687-14.005  c-0.839,0-1.66,0-2.48,0c-2.883,0-5.766,0.014-8.647-0.011c-0.542-0.004-1.117-0.061-1.617-0.252c-1-0.381-1.523-1.363-1.399-2.396  c0.121-1.027,0.877-1.82,1.926-2c0.272-0.047,0.553-0.051,0.828-0.051c4.657-0.003,9.313-0.003,13.97,0.004  c0.271,0,0.542,0.06,0.934,0.104c1.929,6.162,3.86,12.334,5.863,18.731c4.299,0.026,8.602,0.01,12.902,0.013  c4.324,0.003,8.649,0,12.971,0c4.324,0,8.648,0,12.972,0C77.798,33.806,82.111,33.806,86.687,33.806z M35.57,38.67  c0.104,0.782,0.169,1.388,0.267,1.988c1.2,7.319,2.413,14.639,3.603,21.961c0.412,2.536,2.172,4.164,4.734,4.287  c0.498,0.023,0.998,0.009,1.497,0.009c7.315,0,14.63,0,21.945,0c0.609,0,1.221,0.004,1.829-0.002  c3.271-0.023,4.924-1.418,5.461-4.597c0.084-0.49,0.195-0.978,0.314-1.459c1.448-5.802,2.901-11.602,4.348-17.403  c0.386-1.55,0.748-3.104,1.15-4.784C65.628,38.67,50.693,38.67,35.57,38.67z"/><path fill-rule="evenodd" clip-rule="evenodd" d="M39.432,80.996c0.046-2.581,2.291-4.741,4.846-4.66  c2.6,0.082,4.705,2.319,4.604,4.897c-0.101,2.541-2.243,4.604-4.759,4.577C41.54,85.783,39.384,83.572,39.432,80.996z"/><path fill-rule="evenodd" clip-rule="evenodd" d="M72.517,81.052c0.017,2.579-2.184,4.784-4.75,4.762  c-2.513-0.021-4.649-2.125-4.711-4.637c-0.062-2.567,2.084-4.794,4.669-4.842C70.289,76.287,72.501,78.463,72.517,81.052z"/></svg>